<?xml version="1.0" encoding="UTF-8"?>
<svg xmlns="http://www.w3.org/2000/svg" viewBox="0 0 512 512">
  <defs>
    <linearGradient id="g" x1="0%" y1="100%" x2="100%" y2="0%">
      <stop offset="0%" stop-color="#5ED400"/>
      <stop offset="100%" stop-color="#006B0F"/>
    </linearGradient>
  </defs>

  <!-- Transparent background -->

  <!-- Outer drop -->
  <path d="
    M256 30
    C190 120, 95 205, 95 330
    C95 435, 175 500, 256 500
    C337 500, 417 435, 417 330
    C417 205, 322 120, 256 30 Z"
    fill="url(#g)"/>

  <!-- White border shape -->
  <path d="
    M256 90
    C210 155, 145 225, 145 325
    C145 400, 200 455, 256 455
    C312 455, 367 400, 367 325
    C367 225, 302 155, 256 90 Z"
    fill="white"/>

  <!-- Inner drop -->
  <path d="
    M256 125
    C220 180, 175 240, 175 325
    C175 385, 215 425, 256 425
    C297 425, 337 385, 337 325
    C337 240, 292 180, 256 125 Z"
    fill="url(#g)"/>

  <!-- Snowflake -->
  <g stroke="white" stroke-width="12" stroke-linecap="round">
    <line x1="256" y1="210" x2="256" y2="360"/>
    <line x1="190" y1="250" x2="322" y2="320"/>
    <line x1="190" y1="320" x2="322" y2="250"/>

    <!-- Branches -->
    <line x1="256" y1="210" x2="238" y2="228"/>
    <line x1="256" y1="210" x2="274" y2="228"/>

    <line x1="256" y1="360" x2="238" y2="342"/>
    <line x1="256" y1="360" x2="274" y2="342"/>

    <line x1="190" y1="250" x2="212" y2="250"/>
    <line x1="190" y1="250" x2="205" y2="270"/>

    <line x1="322" y1="320" x2="300" y2="320"/>
    <line x1="322" y1="320" x2="307" y2="300"/>

    <line x1="190" y1="320" x2="212" y2="320"/>
    <line x1="190" y1="320" x2="205" y2="300"/>

    <line x1="322" y1="250" x2="300" y2="250"/>
    <line x1="322" y1="250" x2="307" y2="270"/>
  </g>

  <!-- Sparkles -->
  <g fill="#39C400">
    <path d="M110 180 L118 202 L140 210 L118 218 L110 240 L102 218 L80 210 L102 202 Z"/>
    <path d="M392 150 L404 182 L436 194 L404 206 L392 238 L380 206 L348 194 L380 182 Z"/>
    <path d="M430 210 L436 225 L451 231 L436 237 L430 252 L424 237 L409 231 L424 225 Z"/>
  </g>
</svg>
